<mxfile host="" modified="2020-05-24T15:21:41.060Z" agent="5.0 (X11; Linux x86_64) AppleWebKit/537.36 (KHTML, like Gecko) Code/1.45.0 Chrome/78.0.3904.130 Electron/7.2.4 Safari/537.36" version="13.1.3" etag="lrwgP8mNOWNbAz78NI_h" pages="2">
            <diagram id="diagramid" name="Diagram">
              <mxGraphModel><root><mxCell id="0"/><mxCell id="1" parent="0"/><mxCell id="2" value="ServerlessDeploymentBucket" style="outlineConnect=0;fontColor=#B3B3B3;gradientColor=#60A337;gradientDirection=north;fillColor=#277116;strokeColor=#ffffff;dashed=0;verticalLabelPosition=bottom;verticalAlign=top;align=center;html=1;fontSize=12;fontStyle=0;aspect=fixed;shape=mxgraph.aws4.resourceIcon;resIcon=mxgraph.aws4.s3;" vertex="1" parent="1"><mxGeometry x="500" y="1750" width="50" height="50" as="geometry"/></mxCell><mxCell id="4" value="HelloLogGroup" style="outlineConnect=0;fontColor=#B3B3B3;gradientColor=#F34482;gradientDirection=north;fillColor=#BC1356;strokeColor=#ffffff;dashed=0;verticalLabelPosition=bottom;verticalAlign=top;align=center;html=1;fontSize=12;fontStyle=0;aspect=fixed;shape=mxgraph.aws4.resourceIcon;resIcon=mxgraph.aws4.cloudwatch;" vertex="1" parent="1"><mxGeometry y="3400" width="50" height="50" as="geometry"/></mxCell><mxCell id="5" value="SignupLogGroup" style="outlineConnect=0;fontColor=#B3B3B3;gradientColor=#F34482;gradientDirection=north;fillColor=#BC1356;strokeColor=#ffffff;dashed=0;verticalLabelPosition=bottom;verticalAlign=top;align=center;html=1;fontSize=12;fontStyle=0;aspect=fixed;shape=mxgraph.aws4.resourceIcon;resIcon=mxgraph.aws4.cloudwatch;" vertex="1" parent="1"><mxGeometry y="3550" width="50" height="50" as="geometry"/></mxCell><mxCell id="6" value="SigninLogGroup" style="outlineConnect=0;fontColor=#B3B3B3;gradientColor=#F34482;gradientDirection=north;fillColor=#BC1356;strokeColor=#ffffff;dashed=0;verticalLabelPosition=bottom;verticalAlign=top;align=center;html=1;fontSize=12;fontStyle=0;aspect=fixed;shape=mxgraph.aws4.resourceIcon;resIcon=mxgraph.aws4.cloudwatch;" vertex="1" parent="1"><mxGeometry y="3700" width="50" height="50" as="geometry"/></mxCell><mxCell id="7" value="PostConfirmedLogGroup" style="outlineConnect=0;fontColor=#B3B3B3;gradientColor=#F34482;gradientDirection=north;fillColor=#BC1356;strokeColor=#ffffff;dashed=0;verticalLabelPosition=bottom;verticalAlign=top;align=center;html=1;fontSize=12;fontStyle=0;aspect=fixed;shape=mxgraph.aws4.resourceIcon;resIcon=mxgraph.aws4.cloudwatch;" vertex="1" parent="1"><mxGeometry y="3850" width="50" height="50" as="geometry"/></mxCell><mxCell id="8" value="ProductsLogGroup" style="outlineConnect=0;fontColor=#B3B3B3;gradientColor=#F34482;gradientDirection=north;fillColor=#BC1356;strokeColor=#ffffff;dashed=0;verticalLabelPosition=bottom;verticalAlign=top;align=center;html=1;fontSize=12;fontStyle=0;aspect=fixed;shape=mxgraph.aws4.resourceIcon;resIcon=mxgraph.aws4.cloudwatch;" vertex="1" parent="1"><mxGeometry y="4000" width="50" height="50" as="geometry"/></mxCell><mxCell id="9" value="ProductsByIdLogGroup" style="outlineConnect=0;fontColor=#B3B3B3;gradientColor=#F34482;gradientDirection=north;fillColor=#BC1356;strokeColor=#ffffff;dashed=0;verticalLabelPosition=bottom;verticalAlign=top;align=center;html=1;fontSize=12;fontStyle=0;aspect=fixed;shape=mxgraph.aws4.resourceIcon;resIcon=mxgraph.aws4.cloudwatch;" vertex="1" parent="1"><mxGeometry y="4150" width="50" height="50" as="geometry"/></mxCell><mxCell id="10" value="CreateProductLogGroup" style="outlineConnect=0;fontColor=#B3B3B3;gradientColor=#F34482;gradientDirection=north;fillColor=#BC1356;strokeColor=#ffffff;dashed=0;verticalLabelPosition=bottom;verticalAlign=top;align=center;html=1;fontSize=12;fontStyle=0;aspect=fixed;shape=mxgraph.aws4.resourceIcon;resIcon=mxgraph.aws4.cloudwatch;" vertex="1" parent="1"><mxGeometry y="4300" width="50" height="50" as="geometry"/></mxCell><mxCell id="11" value="UpdateProductLogGroup" style="outlineConnect=0;fontColor=#B3B3B3;gradientColor=#F34482;gradientDirection=north;fillColor=#BC1356;strokeColor=#ffffff;dashed=0;verticalLabelPosition=bottom;verticalAlign=top;align=center;html=1;fontSize=12;fontStyle=0;aspect=fixed;shape=mxgraph.aws4.resourceIcon;resIcon=mxgraph.aws4.cloudwatch;" vertex="1" parent="1"><mxGeometry y="4450" width="50" height="50" as="geometry"/></mxCell><mxCell id="12" value="DeleteProductLogGroup" style="outlineConnect=0;fontColor=#B3B3B3;gradientColor=#F34482;gradientDirection=north;fillColor=#BC1356;strokeColor=#ffffff;dashed=0;verticalLabelPosition=bottom;verticalAlign=top;align=center;html=1;fontSize=12;fontStyle=0;aspect=fixed;shape=mxgraph.aws4.resourceIcon;resIcon=mxgraph.aws4.cloudwatch;" vertex="1" parent="1"><mxGeometry y="4600" width="50" height="50" as="geometry"/></mxCell><mxCell id="13" value="CreateOrderLogGroup" style="outlineConnect=0;fontColor=#B3B3B3;gradientColor=#F34482;gradientDirection=north;fillColor=#BC1356;strokeColor=#ffffff;dashed=0;verticalLabelPosition=bottom;verticalAlign=top;align=center;html=1;fontSize=12;fontStyle=0;aspect=fixed;shape=mxgraph.aws4.resourceIcon;resIcon=mxgraph.aws4.cloudwatch;" vertex="1" parent="1"><mxGeometry y="4750" width="50" height="50" as="geometry"/></mxCell><mxCell id="14" value="GetOrdersByUserIdLogGroup" style="outlineConnect=0;fontColor=#B3B3B3;gradientColor=#F34482;gradientDirection=north;fillColor=#BC1356;strokeColor=#ffffff;dashed=0;verticalLabelPosition=bottom;verticalAlign=top;align=center;html=1;fontSize=12;fontStyle=0;aspect=fixed;shape=mxgraph.aws4.resourceIcon;resIcon=mxgraph.aws4.cloudwatch;" vertex="1" parent="1"><mxGeometry y="4900" width="50" height="50" as="geometry"/></mxCell><mxCell id="15" value="GetOrderByIdLogGroup" style="outlineConnect=0;fontColor=#B3B3B3;gradientColor=#F34482;gradientDirection=north;fillColor=#BC1356;strokeColor=#ffffff;dashed=0;verticalLabelPosition=bottom;verticalAlign=top;align=center;html=1;fontSize=12;fontStyle=0;aspect=fixed;shape=mxgraph.aws4.resourceIcon;resIcon=mxgraph.aws4.cloudwatch;" vertex="1" parent="1"><mxGeometry y="5050" width="50" height="50" as="geometry"/></mxCell><mxCell id="16" value="PaymentLogGroup" style="outlineConnect=0;fontColor=#B3B3B3;gradientColor=#F34482;gradientDirection=north;fillColor=#BC1356;strokeColor=#ffffff;dashed=0;verticalLabelPosition=bottom;verticalAlign=top;align=center;html=1;fontSize=12;fontStyle=0;aspect=fixed;shape=mxgraph.aws4.resourceIcon;resIcon=mxgraph.aws4.cloudwatch;" vertex="1" parent="1"><mxGeometry y="5200" width="50" height="50" as="geometry"/></mxCell><mxCell id="17" value="UploadImageLogGroup" style="outlineConnect=0;fontColor=#B3B3B3;gradientColor=#F34482;gradientDirection=north;fillColor=#BC1356;strokeColor=#ffffff;dashed=0;verticalLabelPosition=bottom;verticalAlign=top;align=center;html=1;fontSize=12;fontStyle=0;aspect=fixed;shape=mxgraph.aws4.resourceIcon;resIcon=mxgraph.aws4.cloudwatch;" vertex="1" parent="1"><mxGeometry y="5350" width="50" height="50" as="geometry"/></mxCell><mxCell id="18" value="IamRoleLambdaExecution" style="outlineConnect=0;fontColor=#B3B3B3;gradientColor=#F54749;gradientDirection=north;fillColor=#C7131F;strokeColor=#ffffff;dashed=0;verticalLabelPosition=bottom;verticalAlign=top;align=center;html=1;fontSize=12;fontStyle=0;aspect=fixed;shape=mxgraph.aws4.resourceIcon;resIcon=mxgraph.aws4.role;" vertex="1" parent="1"><mxGeometry x="500" y="1000" width="50" height="50" as="geometry"/></mxCell><mxCell id="19" value="HelloLambdaFunction" style="outlineConnect=0;fontColor=#B3B3B3;gradientColor=#F78E04;gradientDirection=north;fillColor=#D05C17;strokeColor=#ffffff;dashed=0;verticalLabelPosition=bottom;verticalAlign=top;align=center;html=1;fontSize=12;fontStyle=0;aspect=fixed;shape=mxgraph.aws4.resourceIcon;resIcon=mxgraph.aws4.lambda;" vertex="1" parent="1"><mxGeometry x="250" y="775" width="50" height="50" as="geometry"/></mxCell><mxCell id="20" value="SignupLambdaFunction" style="outlineConnect=0;fontColor=#B3B3B3;gradientColor=#F78E04;gradientDirection=north;fillColor=#D05C17;strokeColor=#ffffff;dashed=0;verticalLabelPosition=bottom;verticalAlign=top;align=center;html=1;fontSize=12;fontStyle=0;aspect=fixed;shape=mxgraph.aws4.resourceIcon;resIcon=mxgraph.aws4.lambda;" vertex="1" parent="1"><mxGeometry x="250" y="875" width="50" height="50" as="geometry"/></mxCell><mxCell id="21" value="SigninLambdaFunction" style="outlineConnect=0;fontColor=#B3B3B3;gradientColor=#F78E04;gradientDirection=north;fillColor=#D05C17;strokeColor=#ffffff;dashed=0;verticalLabelPosition=bottom;verticalAlign=top;align=center;html=1;fontSize=12;fontStyle=0;aspect=fixed;shape=mxgraph.aws4.resourceIcon;resIcon=mxgraph.aws4.lambda;" vertex="1" parent="1"><mxGeometry x="250" y="1025" width="50" height="50" as="geometry"/></mxCell><mxCell id="22" value="PostConfirmedLambdaFunction" style="outlineConnect=0;fontColor=#B3B3B3;gradientColor=#F78E04;gradientDirection=north;fillColor=#D05C17;strokeColor=#ffffff;dashed=0;verticalLabelPosition=bottom;verticalAlign=top;align=center;html=1;fontSize=12;fontStyle=0;aspect=fixed;shape=mxgraph.aws4.resourceIcon;resIcon=mxgraph.aws4.lambda;" vertex="1" parent="1"><mxGeometry x="250" y="1175" width="50" height="50" as="geometry"/></mxCell><mxCell id="23" value="ProductsLambdaFunction" style="outlineConnect=0;fontColor=#B3B3B3;gradientColor=#F78E04;gradientDirection=north;fillColor=#D05C17;strokeColor=#ffffff;dashed=0;verticalLabelPosition=bottom;verticalAlign=top;align=center;html=1;fontSize=12;fontStyle=0;aspect=fixed;shape=mxgraph.aws4.resourceIcon;resIcon=mxgraph.aws4.lambda;" vertex="1" parent="1"><mxGeometry x="250" y="1325" width="50" height="50" as="geometry"/></mxCell><mxCell id="24" value="ProductsByIdLambdaFunction" style="outlineConnect=0;fontColor=#B3B3B3;gradientColor=#F78E04;gradientDirection=north;fillColor=#D05C17;strokeColor=#ffffff;dashed=0;verticalLabelPosition=bottom;verticalAlign=top;align=center;html=1;fontSize=12;fontStyle=0;aspect=fixed;shape=mxgraph.aws4.resourceIcon;resIcon=mxgraph.aws4.lambda;" vertex="1" parent="1"><mxGeometry x="250" y="1475" width="50" height="50" as="geometry"/></mxCell><mxCell id="25" value="CreateProductLambdaFunction" style="outlineConnect=0;fontColor=#B3B3B3;gradientColor=#F78E04;gradientDirection=north;fillColor=#D05C17;strokeColor=#ffffff;dashed=0;verticalLabelPosition=bottom;verticalAlign=top;align=center;html=1;fontSize=12;fontStyle=0;aspect=fixed;shape=mxgraph.aws4.resourceIcon;resIcon=mxgraph.aws4.lambda;" vertex="1" parent="1"><mxGeometry x="250" y="1625" width="50" height="50" as="geometry"/></mxCell><mxCell id="26" value="UpdateProductLambdaFunction" style="outlineConnect=0;fontColor=#B3B3B3;gradientColor=#F78E04;gradientDirection=north;fillColor=#D05C17;strokeColor=#ffffff;dashed=0;verticalLabelPosition=bottom;verticalAlign=top;align=center;html=1;fontSize=12;fontStyle=0;aspect=fixed;shape=mxgraph.aws4.resourceIcon;resIcon=mxgraph.aws4.lambda;" vertex="1" parent="1"><mxGeometry x="250" y="1775" width="50" height="50" as="geometry"/></mxCell><mxCell id="27" value="DeleteProductLambdaFunction" style="outlineConnect=0;fontColor=#B3B3B3;gradientColor=#F78E04;gradientDirection=north;fillColor=#D05C17;strokeColor=#ffffff;dashed=0;verticalLabelPosition=bottom;verticalAlign=top;align=center;html=1;fontSize=12;fontStyle=0;aspect=fixed;shape=mxgraph.aws4.resourceIcon;resIcon=mxgraph.aws4.lambda;" vertex="1" parent="1"><mxGeometry x="250" y="1925" width="50" height="50" as="geometry"/></mxCell><mxCell id="28" value="CreateOrderLambdaFunction" style="outlineConnect=0;fontColor=#B3B3B3;gradientColor=#F78E04;gradientDirection=north;fillColor=#D05C17;strokeColor=#ffffff;dashed=0;verticalLabelPosition=bottom;verticalAlign=top;align=center;html=1;fontSize=12;fontStyle=0;aspect=fixed;shape=mxgraph.aws4.resourceIcon;resIcon=mxgraph.aws4.lambda;" vertex="1" parent="1"><mxGeometry x="250" y="2075" width="50" height="50" as="geometry"/></mxCell><mxCell id="29" value="GetOrdersByUserIdLambdaFunction" style="outlineConnect=0;fontColor=#B3B3B3;gradientColor=#F78E04;gradientDirection=north;fillColor=#D05C17;strokeColor=#ffffff;dashed=0;verticalLabelPosition=bottom;verticalAlign=top;align=center;html=1;fontSize=12;fontStyle=0;aspect=fixed;shape=mxgraph.aws4.resourceIcon;resIcon=mxgraph.aws4.lambda;" vertex="1" parent="1"><mxGeometry x="250" y="2225" width="50" height="50" as="geometry"/></mxCell><mxCell id="30" value="GetOrderByIdLambdaFunction" style="outlineConnect=0;fontColor=#B3B3B3;gradientColor=#F78E04;gradientDirection=north;fillColor=#D05C17;strokeColor=#ffffff;dashed=0;verticalLabelPosition=bottom;verticalAlign=top;align=center;html=1;fontSize=12;fontStyle=0;aspect=fixed;shape=mxgraph.aws4.resourceIcon;resIcon=mxgraph.aws4.lambda;" vertex="1" parent="1"><mxGeometry x="250" y="2375" width="50" height="50" as="geometry"/></mxCell><mxCell id="31" value="PaymentLambdaFunction" style="outlineConnect=0;fontColor=#B3B3B3;gradientColor=#F78E04;gradientDirection=north;fillColor=#D05C17;strokeColor=#ffffff;dashed=0;verticalLabelPosition=bottom;verticalAlign=top;align=center;html=1;fontSize=12;fontStyle=0;aspect=fixed;shape=mxgraph.aws4.resourceIcon;resIcon=mxgraph.aws4.lambda;" vertex="1" parent="1"><mxGeometry x="250" y="2525" width="50" height="50" as="geometry"/></mxCell><mxCell id="32" value="UploadImageLambdaFunction" style="outlineConnect=0;fontColor=#B3B3B3;gradientColor=#F78E04;gradientDirection=north;fillColor=#D05C17;strokeColor=#ffffff;dashed=0;verticalLabelPosition=bottom;verticalAlign=top;align=center;html=1;fontSize=12;fontStyle=0;aspect=fixed;shape=mxgraph.aws4.resourceIcon;resIcon=mxgraph.aws4.lambda;" vertex="1" parent="1"><mxGeometry x="250" y="2675" width="50" height="50" as="geometry"/></mxCell><mxCell id="47" value="ApiGatewayRestApi" style="outlineConnect=0;fontColor=#B3B3B3;gradientColor=#945DF2;gradientDirection=north;fillColor=#5A30B5;strokeColor=#ffffff;dashed=0;verticalLabelPosition=bottom;verticalAlign=top;align=center;html=1;fontSize=12;fontStyle=0;aspect=fixed;shape=mxgraph.aws4.resourceIcon;resIcon=mxgraph.aws4.api_gateway;" vertex="1" parent="1"><mxGeometry x="750" y="1075" width="50" height="50" as="geometry"/></mxCell><mxCell id="48" value="ApiGatewayResourceHello" style="outlineConnect=0;fontColor=#B3B3B3;gradientColor=#945DF2;gradientDirection=north;fillColor=#5A30B5;strokeColor=#ffffff;dashed=0;verticalLabelPosition=bottom;verticalAlign=top;align=center;html=1;fontSize=12;fontStyle=0;aspect=fixed;shape=mxgraph.aws4.resourceIcon;resIcon=mxgraph.aws4.api_gateway;" vertex="1" parent="1"><mxGeometry x="500" width="50" height="50" as="geometry"/></mxCell><mxCell id="49" value="ApiGatewayResourceSignup" style="outlineConnect=0;fontColor=#B3B3B3;gradientColor=#945DF2;gradientDirection=north;fillColor=#5A30B5;strokeColor=#ffffff;dashed=0;verticalLabelPosition=bottom;verticalAlign=top;align=center;html=1;fontSize=12;fontStyle=0;aspect=fixed;shape=mxgraph.aws4.resourceIcon;resIcon=mxgraph.aws4.api_gateway;" vertex="1" parent="1"><mxGeometry x="500" y="100" width="50" height="50" as="geometry"/></mxCell><mxCell id="50" value="ApiGatewayResourceSignin" style="outlineConnect=0;fontColor=#B3B3B3;gradientColor=#945DF2;gradientDirection=north;fillColor=#5A30B5;strokeColor=#ffffff;dashed=0;verticalLabelPosition=bottom;verticalAlign=top;align=center;html=1;fontSize=12;fontStyle=0;aspect=fixed;shape=mxgraph.aws4.resourceIcon;resIcon=mxgraph.aws4.api_gateway;" vertex="1" parent="1"><mxGeometry x="500" y="200" width="50" height="50" as="geometry"/></mxCell><mxCell id="51" value="ApiGatewayResourceConfirmed" style="outlineConnect=0;fontColor=#B3B3B3;gradientColor=#945DF2;gradientDirection=north;fillColor=#5A30B5;strokeColor=#ffffff;dashed=0;verticalLabelPosition=bottom;verticalAlign=top;align=center;html=1;fontSize=12;fontStyle=0;aspect=fixed;shape=mxgraph.aws4.resourceIcon;resIcon=mxgraph.aws4.api_gateway;" vertex="1" parent="1"><mxGeometry x="500" y="300" width="50" height="50" as="geometry"/></mxCell><mxCell id="52" value="ApiGatewayResourceProducts" style="outlineConnect=0;fontColor=#B3B3B3;gradientColor=#945DF2;gradientDirection=north;fillColor=#5A30B5;strokeColor=#ffffff;dashed=0;verticalLabelPosition=bottom;verticalAlign=top;align=center;html=1;fontSize=12;fontStyle=0;aspect=fixed;shape=mxgraph.aws4.resourceIcon;resIcon=mxgraph.aws4.api_gateway;" vertex="1" parent="1"><mxGeometry x="500" y="400" width="50" height="50" as="geometry"/></mxCell><mxCell id="53" value="ApiGatewayResourceProductsProductidVar" style="outlineConnect=0;fontColor=#B3B3B3;gradientColor=#945DF2;gradientDirection=north;fillColor=#5A30B5;strokeColor=#ffffff;dashed=0;verticalLabelPosition=bottom;verticalAlign=top;align=center;html=1;fontSize=12;fontStyle=0;aspect=fixed;shape=mxgraph.aws4.resourceIcon;resIcon=mxgraph.aws4.api_gateway;" vertex="1" parent="1"><mxGeometry x="250" y="225" width="50" height="50" as="geometry"/></mxCell><mxCell id="54" value="ApiGatewayResourceProductsProductidVarUpload" style="outlineConnect=0;fontColor=#B3B3B3;gradientColor=#945DF2;gradientDirection=north;fillColor=#5A30B5;strokeColor=#ffffff;dashed=0;verticalLabelPosition=bottom;verticalAlign=top;align=center;html=1;fontSize=12;fontStyle=0;aspect=fixed;shape=mxgraph.aws4.resourceIcon;resIcon=mxgraph.aws4.api_gateway;" vertex="1" parent="1"><mxGeometry y="262.5" width="50" height="50" as="geometry"/></mxCell><mxCell id="55" value="ApiGatewayResourceOrders" style="outlineConnect=0;fontColor=#B3B3B3;gradientColor=#945DF2;gradientDirection=north;fillColor=#5A30B5;strokeColor=#ffffff;dashed=0;verticalLabelPosition=bottom;verticalAlign=top;align=center;html=1;fontSize=12;fontStyle=0;aspect=fixed;shape=mxgraph.aws4.resourceIcon;resIcon=mxgraph.aws4.api_gateway;" vertex="1" parent="1"><mxGeometry x="250" y="375" width="50" height="50" as="geometry"/></mxCell><mxCell id="56" value="ApiGatewayResourceOrdersOrderidVar" style="outlineConnect=0;fontColor=#B3B3B3;gradientColor=#945DF2;gradientDirection=north;fillColor=#5A30B5;strokeColor=#ffffff;dashed=0;verticalLabelPosition=bottom;verticalAlign=top;align=center;html=1;fontSize=12;fontStyle=0;aspect=fixed;shape=mxgraph.aws4.resourceIcon;resIcon=mxgraph.aws4.api_gateway;" vertex="1" parent="1"><mxGeometry y="412.5" width="50" height="50" as="geometry"/></mxCell><mxCell id="57" value="ApiGatewayResourcePayment" style="outlineConnect=0;fontColor=#B3B3B3;gradientColor=#945DF2;gradientDirection=north;fillColor=#5A30B5;strokeColor=#ffffff;dashed=0;verticalLabelPosition=bottom;verticalAlign=top;align=center;html=1;fontSize=12;fontStyle=0;aspect=fixed;shape=mxgraph.aws4.resourceIcon;resIcon=mxgraph.aws4.api_gateway;" vertex="1" parent="1"><mxGeometry x="250" y="525" width="50" height="50" as="geometry"/></mxCell><mxCell id="58" value="ApiGatewayResourcePaymentOrderidVar" style="outlineConnect=0;fontColor=#B3B3B3;gradientColor=#945DF2;gradientDirection=north;fillColor=#5A30B5;strokeColor=#ffffff;dashed=0;verticalLabelPosition=bottom;verticalAlign=top;align=center;html=1;fontSize=12;fontStyle=0;aspect=fixed;shape=mxgraph.aws4.resourceIcon;resIcon=mxgraph.aws4.api_gateway;" vertex="1" parent="1"><mxGeometry y="562.5" width="50" height="50" as="geometry"/></mxCell><mxCell id="79" value="ApiGatewayDeployment1633519405189" style="outlineConnect=0;fontColor=#B3B3B3;gradientColor=#945DF2;gradientDirection=north;fillColor=#5A30B5;strokeColor=#ffffff;dashed=0;verticalLabelPosition=bottom;verticalAlign=top;align=center;html=1;fontSize=12;fontStyle=0;aspect=fixed;shape=mxgraph.aws4.resourceIcon;resIcon=mxgraph.aws4.api_gateway;" vertex="1" parent="1"><mxGeometry x="500" y="800" width="50" height="50" as="geometry"/></mxCell><mxCell id="80" value="HelloLambdaPermissionApiGateway" style="outlineConnect=0;fontColor=#B3B3B3;gradientColor=#F54749;gradientDirection=north;fillColor=#C7131F;strokeColor=#ffffff;dashed=0;verticalLabelPosition=bottom;verticalAlign=top;align=center;html=1;fontSize=12;fontStyle=0;aspect=fixed;shape=mxgraph.aws4.resourceIcon;resIcon=mxgraph.aws4.policy;" vertex="1" parent="1"><mxGeometry y="712.5" width="50" height="50" as="geometry"/></mxCell><mxCell id="81" value="SignupLambdaPermissionApiGateway" style="outlineConnect=0;fontColor=#B3B3B3;gradientColor=#F54749;gradientDirection=north;fillColor=#C7131F;strokeColor=#ffffff;dashed=0;verticalLabelPosition=bottom;verticalAlign=top;align=center;html=1;fontSize=12;fontStyle=0;aspect=fixed;shape=mxgraph.aws4.resourceIcon;resIcon=mxgraph.aws4.policy;" vertex="1" parent="1"><mxGeometry y="812.5" width="50" height="50" as="geometry"/></mxCell><mxCell id="82" value="SigninLambdaPermissionApiGateway" style="outlineConnect=0;fontColor=#B3B3B3;gradientColor=#F54749;gradientDirection=north;fillColor=#C7131F;strokeColor=#ffffff;dashed=0;verticalLabelPosition=bottom;verticalAlign=top;align=center;html=1;fontSize=12;fontStyle=0;aspect=fixed;shape=mxgraph.aws4.resourceIcon;resIcon=mxgraph.aws4.policy;" vertex="1" parent="1"><mxGeometry y="987.5" width="50" height="50" as="geometry"/></mxCell><mxCell id="83" value="PostConfirmedLambdaPermissionApiGateway" style="outlineConnect=0;fontColor=#B3B3B3;gradientColor=#F54749;gradientDirection=north;fillColor=#C7131F;strokeColor=#ffffff;dashed=0;verticalLabelPosition=bottom;verticalAlign=top;align=center;html=1;fontSize=12;fontStyle=0;aspect=fixed;shape=mxgraph.aws4.resourceIcon;resIcon=mxgraph.aws4.policy;" vertex="1" parent="1"><mxGeometry y="1137.5" width="50" height="50" as="geometry"/></mxCell><mxCell id="84" value="ProductsLambdaPermissionApiGateway" style="outlineConnect=0;fontColor=#B3B3B3;gradientColor=#F54749;gradientDirection=north;fillColor=#C7131F;strokeColor=#ffffff;dashed=0;verticalLabelPosition=bottom;verticalAlign=top;align=center;html=1;fontSize=12;fontStyle=0;aspect=fixed;shape=mxgraph.aws4.resourceIcon;resIcon=mxgraph.aws4.policy;" vertex="1" parent="1"><mxGeometry y="1287.5" width="50" height="50" as="geometry"/></mxCell><mxCell id="85" value="ProductsByIdLambdaPermissionApiGateway" style="outlineConnect=0;fontColor=#B3B3B3;gradientColor=#F54749;gradientDirection=north;fillColor=#C7131F;strokeColor=#ffffff;dashed=0;verticalLabelPosition=bottom;verticalAlign=top;align=center;html=1;fontSize=12;fontStyle=0;aspect=fixed;shape=mxgraph.aws4.resourceIcon;resIcon=mxgraph.aws4.policy;" vertex="1" parent="1"><mxGeometry y="1425" width="50" height="50" as="geometry"/></mxCell><mxCell id="86" value="CreateProductLambdaPermissionApiGateway" style="outlineConnect=0;fontColor=#B3B3B3;gradientColor=#F54749;gradientDirection=north;fillColor=#C7131F;strokeColor=#ffffff;dashed=0;verticalLabelPosition=bottom;verticalAlign=top;align=center;html=1;fontSize=12;fontStyle=0;aspect=fixed;shape=mxgraph.aws4.resourceIcon;resIcon=mxgraph.aws4.policy;" vertex="1" parent="1"><mxGeometry y="1525" width="50" height="50" as="geometry"/></mxCell><mxCell id="87" value="UpdateProductLambdaPermissionApiGateway" style="outlineConnect=0;fontColor=#B3B3B3;gradientColor=#F54749;gradientDirection=north;fillColor=#C7131F;strokeColor=#ffffff;dashed=0;verticalLabelPosition=bottom;verticalAlign=top;align=center;html=1;fontSize=12;fontStyle=0;aspect=fixed;shape=mxgraph.aws4.resourceIcon;resIcon=mxgraph.aws4.policy;" vertex="1" parent="1"><mxGeometry y="1625" width="50" height="50" as="geometry"/></mxCell><mxCell id="88" value="DeleteProductLambdaPermissionApiGateway" style="outlineConnect=0;fontColor=#B3B3B3;gradientColor=#F54749;gradientDirection=north;fillColor=#C7131F;strokeColor=#ffffff;dashed=0;verticalLabelPosition=bottom;verticalAlign=top;align=center;html=1;fontSize=12;fontStyle=0;aspect=fixed;shape=mxgraph.aws4.resourceIcon;resIcon=mxgraph.aws4.policy;" vertex="1" parent="1"><mxGeometry y="1725" width="50" height="50" as="geometry"/></mxCell><mxCell id="89" value="CreateOrderLambdaPermissionApiGateway" style="outlineConnect=0;fontColor=#B3B3B3;gradientColor=#F54749;gradientDirection=north;fillColor=#C7131F;strokeColor=#ffffff;dashed=0;verticalLabelPosition=bottom;verticalAlign=top;align=center;html=1;fontSize=12;fontStyle=0;aspect=fixed;shape=mxgraph.aws4.resourceIcon;resIcon=mxgraph.aws4.policy;" vertex="1" parent="1"><mxGeometry y="1825" width="50" height="50" as="geometry"/></mxCell><mxCell id="90" value="GetOrdersByUserIdLambdaPermissionApiGateway" style="outlineConnect=0;fontColor=#B3B3B3;gradientColor=#F54749;gradientDirection=north;fillColor=#C7131F;strokeColor=#ffffff;dashed=0;verticalLabelPosition=bottom;verticalAlign=top;align=center;html=1;fontSize=12;fontStyle=0;aspect=fixed;shape=mxgraph.aws4.resourceIcon;resIcon=mxgraph.aws4.policy;" vertex="1" parent="1"><mxGeometry y="1925" width="50" height="50" as="geometry"/></mxCell><mxCell id="91" value="GetOrderByIdLambdaPermissionApiGateway" style="outlineConnect=0;fontColor=#B3B3B3;gradientColor=#F54749;gradientDirection=north;fillColor=#C7131F;strokeColor=#ffffff;dashed=0;verticalLabelPosition=bottom;verticalAlign=top;align=center;html=1;fontSize=12;fontStyle=0;aspect=fixed;shape=mxgraph.aws4.resourceIcon;resIcon=mxgraph.aws4.policy;" vertex="1" parent="1"><mxGeometry y="2025" width="50" height="50" as="geometry"/></mxCell><mxCell id="92" value="PaymentLambdaPermissionApiGateway" style="outlineConnect=0;fontColor=#B3B3B3;gradientColor=#F54749;gradientDirection=north;fillColor=#C7131F;strokeColor=#ffffff;dashed=0;verticalLabelPosition=bottom;verticalAlign=top;align=center;html=1;fontSize=12;fontStyle=0;aspect=fixed;shape=mxgraph.aws4.resourceIcon;resIcon=mxgraph.aws4.policy;" vertex="1" parent="1"><mxGeometry y="2125" width="50" height="50" as="geometry"/></mxCell><mxCell id="93" value="UploadImageLambdaPermissionApiGateway" style="outlineConnect=0;fontColor=#B3B3B3;gradientColor=#F54749;gradientDirection=north;fillColor=#C7131F;strokeColor=#ffffff;dashed=0;verticalLabelPosition=bottom;verticalAlign=top;align=center;html=1;fontSize=12;fontStyle=0;aspect=fixed;shape=mxgraph.aws4.resourceIcon;resIcon=mxgraph.aws4.policy;" vertex="1" parent="1"><mxGeometry y="2225" width="50" height="50" as="geometry"/></mxCell><mxCell id="94" value="PostConfirmedIamRoleLambdaExecution" style="outlineConnect=0;fontColor=#B3B3B3;gradientColor=#F54749;gradientDirection=north;fillColor=#C7131F;strokeColor=#ffffff;dashed=0;verticalLabelPosition=bottom;verticalAlign=top;align=center;html=1;fontSize=12;fontStyle=0;aspect=fixed;shape=mxgraph.aws4.resourceIcon;resIcon=mxgraph.aws4.role;" vertex="1" parent="1"><mxGeometry x="500" y="1200" width="50" height="50" as="geometry"/></mxCell><mxCell id="95" value="ProductsIamRoleLambdaExecution" style="outlineConnect=0;fontColor=#B3B3B3;gradientColor=#F54749;gradientDirection=north;fillColor=#C7131F;strokeColor=#ffffff;dashed=0;verticalLabelPosition=bottom;verticalAlign=top;align=center;html=1;fontSize=12;fontStyle=0;aspect=fixed;shape=mxgraph.aws4.resourceIcon;resIcon=mxgraph.aws4.role;" vertex="1" parent="1"><mxGeometry x="500" y="1350" width="50" height="50" as="geometry"/></mxCell><mxCell id="96" value="ProductsByIdIamRoleLambdaExecution" style="outlineConnect=0;fontColor=#B3B3B3;gradientColor=#F54749;gradientDirection=north;fillColor=#C7131F;strokeColor=#ffffff;dashed=0;verticalLabelPosition=bottom;verticalAlign=top;align=center;html=1;fontSize=12;fontStyle=0;aspect=fixed;shape=mxgraph.aws4.resourceIcon;resIcon=mxgraph.aws4.role;" vertex="1" parent="1"><mxGeometry x="500" y="1500" width="50" height="50" as="geometry"/></mxCell><mxCell id="97" value="CreateProductIamRoleLambdaExecution" style="outlineConnect=0;fontColor=#B3B3B3;gradientColor=#F54749;gradientDirection=north;fillColor=#C7131F;strokeColor=#ffffff;dashed=0;verticalLabelPosition=bottom;verticalAlign=top;align=center;html=1;fontSize=12;fontStyle=0;aspect=fixed;shape=mxgraph.aws4.resourceIcon;resIcon=mxgraph.aws4.role;" vertex="1" parent="1"><mxGeometry x="500" y="1650" width="50" height="50" as="geometry"/></mxCell><mxCell id="98" value="UpdateProductIamRoleLambdaExecution" style="outlineConnect=0;fontColor=#B3B3B3;gradientColor=#F54749;gradientDirection=north;fillColor=#C7131F;strokeColor=#ffffff;dashed=0;verticalLabelPosition=bottom;verticalAlign=top;align=center;html=1;fontSize=12;fontStyle=0;aspect=fixed;shape=mxgraph.aws4.resourceIcon;resIcon=mxgraph.aws4.role;" vertex="1" parent="1"><mxGeometry x="500" y="1900" width="50" height="50" as="geometry"/></mxCell><mxCell id="99" value="DeleteProductIamRoleLambdaExecution" style="outlineConnect=0;fontColor=#B3B3B3;gradientColor=#F54749;gradientDirection=north;fillColor=#C7131F;strokeColor=#ffffff;dashed=0;verticalLabelPosition=bottom;verticalAlign=top;align=center;html=1;fontSize=12;fontStyle=0;aspect=fixed;shape=mxgraph.aws4.resourceIcon;resIcon=mxgraph.aws4.role;" vertex="1" parent="1"><mxGeometry x="500" y="2050" width="50" height="50" as="geometry"/></mxCell><mxCell id="100" value="CreateOrderIamRoleLambdaExecution" style="outlineConnect=0;fontColor=#B3B3B3;gradientColor=#F54749;gradientDirection=north;fillColor=#C7131F;strokeColor=#ffffff;dashed=0;verticalLabelPosition=bottom;verticalAlign=top;align=center;html=1;fontSize=12;fontStyle=0;aspect=fixed;shape=mxgraph.aws4.resourceIcon;resIcon=mxgraph.aws4.role;" vertex="1" parent="1"><mxGeometry x="500" y="2200" width="50" height="50" as="geometry"/></mxCell><mxCell id="101" value="GetOrdersByUserIdIamRoleLambdaExecution" style="outlineConnect=0;fontColor=#B3B3B3;gradientColor=#F54749;gradientDirection=north;fillColor=#C7131F;strokeColor=#ffffff;dashed=0;verticalLabelPosition=bottom;verticalAlign=top;align=center;html=1;fontSize=12;fontStyle=0;aspect=fixed;shape=mxgraph.aws4.resourceIcon;resIcon=mxgraph.aws4.role;" vertex="1" parent="1"><mxGeometry x="500" y="2350" width="50" height="50" as="geometry"/></mxCell><mxCell id="102" value="GetOrderByIdIamRoleLambdaExecution" style="outlineConnect=0;fontColor=#B3B3B3;gradientColor=#F54749;gradientDirection=north;fillColor=#C7131F;strokeColor=#ffffff;dashed=0;verticalLabelPosition=bottom;verticalAlign=top;align=center;html=1;fontSize=12;fontStyle=0;aspect=fixed;shape=mxgraph.aws4.resourceIcon;resIcon=mxgraph.aws4.role;" vertex="1" parent="1"><mxGeometry x="500" y="2500" width="50" height="50" as="geometry"/></mxCell><mxCell id="103" value="PaymentIamRoleLambdaExecution" style="outlineConnect=0;fontColor=#B3B3B3;gradientColor=#F54749;gradientDirection=north;fillColor=#C7131F;strokeColor=#ffffff;dashed=0;verticalLabelPosition=bottom;verticalAlign=top;align=center;html=1;fontSize=12;fontStyle=0;aspect=fixed;shape=mxgraph.aws4.resourceIcon;resIcon=mxgraph.aws4.role;" vertex="1" parent="1"><mxGeometry x="500" y="2650" width="50" height="50" as="geometry"/></mxCell><mxCell id="104" value="UploadImageIamRoleLambdaExecution" style="outlineConnect=0;fontColor=#B3B3B3;gradientColor=#F54749;gradientDirection=north;fillColor=#C7131F;strokeColor=#ffffff;dashed=0;verticalLabelPosition=bottom;verticalAlign=top;align=center;html=1;fontSize=12;fontStyle=0;aspect=fixed;shape=mxgraph.aws4.resourceIcon;resIcon=mxgraph.aws4.role;" vertex="1" parent="1"><mxGeometry x="500" y="2800" width="50" height="50" as="geometry"/></mxCell><mxCell id="112" value="productsTable" style="outlineConnect=0;fontColor=#B3B3B3;gradientColor=#4D72F3;gradientDirection=north;fillColor=#3334B9;strokeColor=#ffffff;dashed=0;verticalLabelPosition=bottom;verticalAlign=top;align=center;html=1;fontSize=12;fontStyle=0;aspect=fixed;shape=mxgraph.aws4.resourceIcon;resIcon=mxgraph.aws4.dynamodb;" vertex="1" parent="1"><mxGeometry x="500" y="2900" width="50" height="50" as="geometry"/></mxCell><mxCell id="113" value="ordersTable" style="outlineConnect=0;fontColor=#B3B3B3;gradientColor=#4D72F3;gradientDirection=north;fillColor=#3334B9;strokeColor=#ffffff;dashed=0;verticalLabelPosition=bottom;verticalAlign=top;align=center;html=1;fontSize=12;fontStyle=0;aspect=fixed;shape=mxgraph.aws4.resourceIcon;resIcon=mxgraph.aws4.dynamodb;" vertex="1" parent="1"><mxGeometry x="500" y="3000" width="50" height="50" as="geometry"/></mxCell><mxCell id="114" value="cognitoUserPool" style="outlineConnect=0;fontColor=#B3B3B3;gradientColor=#F54749;gradientDirection=north;fillColor=#C7131F;strokeColor=#ffffff;dashed=0;verticalLabelPosition=bottom;verticalAlign=top;align=center;html=1;fontSize=12;fontStyle=0;aspect=fixed;shape=mxgraph.aws4.resourceIcon;resIcon=mxgraph.aws4.cognito;" vertex="1" parent="1"><mxGeometry x="250" y="2875" width="50" height="50" as="geometry"/></mxCell><mxCell id="115" value="cognitoUserPoolClient" style="outlineConnect=0;fontColor=#B3B3B3;gradientColor=#F54749;gradientDirection=north;fillColor=#C7131F;strokeColor=#ffffff;dashed=0;verticalLabelPosition=bottom;verticalAlign=top;align=center;html=1;fontSize=12;fontStyle=0;aspect=fixed;shape=mxgraph.aws4.resourceIcon;resIcon=mxgraph.aws4.cognito;" vertex="1" parent="1"><mxGeometry y="2425" width="50" height="50" as="geometry"/></mxCell><mxCell id="116" value="cognitoAdminGroup" style="outlineConnect=0;fontColor=#B3B3B3;gradientColor=#F54749;gradientDirection=north;fillColor=#C7131F;strokeColor=#ffffff;dashed=0;verticalLabelPosition=bottom;verticalAlign=top;align=center;html=1;fontSize=12;fontStyle=0;aspect=fixed;shape=mxgraph.aws4.resourceIcon;resIcon=mxgraph.aws4.cognito;" vertex="1" parent="1"><mxGeometry y="2325" width="50" height="50" as="geometry"/></mxCell><mxCell id="117" value="cognitoAdminIAMRole" style="outlineConnect=0;fontColor=#B3B3B3;gradientColor=#F54749;gradientDirection=north;fillColor=#C7131F;strokeColor=#ffffff;dashed=0;verticalLabelPosition=bottom;verticalAlign=top;align=center;html=1;fontSize=12;fontStyle=0;aspect=fixed;shape=mxgraph.aws4.resourceIcon;resIcon=mxgraph.aws4.role;" vertex="1" parent="1"><mxGeometry x="250" y="2775" width="50" height="50" as="geometry"/></mxCell><mxCell id="118" value="cognitoCustomerGroup" style="outlineConnect=0;fontColor=#B3B3B3;gradientColor=#F54749;gradientDirection=north;fillColor=#C7131F;strokeColor=#ffffff;dashed=0;verticalLabelPosition=bottom;verticalAlign=top;align=center;html=1;fontSize=12;fontStyle=0;aspect=fixed;shape=mxgraph.aws4.resourceIcon;resIcon=mxgraph.aws4.cognito;" vertex="1" parent="1"><mxGeometry y="2525" width="50" height="50" as="geometry"/></mxCell><mxCell id="119" value="cognitoCustomerIAMRole" style="outlineConnect=0;fontColor=#B3B3B3;gradientColor=#F54749;gradientDirection=north;fillColor=#C7131F;strokeColor=#ffffff;dashed=0;verticalLabelPosition=bottom;verticalAlign=top;align=center;html=1;fontSize=12;fontStyle=0;aspect=fixed;shape=mxgraph.aws4.resourceIcon;resIcon=mxgraph.aws4.role;" vertex="1" parent="1"><mxGeometry x="250" y="2975" width="50" height="50" as="geometry"/></mxCell><mxCell id="120" value="GatewayResourceDefault4XX" style="outlineConnect=0;fontColor=#B3B3B3;gradientColor=#aaaaaa;gradientDirection=north;fillColor=#aaaaaa;strokeColor=#ffffff;dashed=0;verticalLabelPosition=bottom;verticalAlign=top;align=center;html=1;fontSize=12;fontStyle=0;aspect=fixed;shape=mxgraph.aws4.resourceIcon;resIcon=mxgraph.aws4.apigateway;" vertex="1" parent="1"><mxGeometry x="500" y="3100" width="50" height="50" as="geometry"/></mxCell><mxCell id="121" value="ApiGatewayAuthorizer" style="outlineConnect=0;fontColor=#B3B3B3;gradientColor=#aaaaaa;gradientDirection=north;fillColor=#aaaaaa;strokeColor=#ffffff;dashed=0;verticalLabelPosition=bottom;verticalAlign=top;align=center;html=1;fontSize=12;fontStyle=0;aspect=fixed;shape=mxgraph.aws4.resourceIcon;resIcon=mxgraph.aws4.apigateway;" vertex="1" parent="1"><mxGeometry y="2974.21875" width="50" height="50" as="geometry"/></mxCell><mxCell id="122" value="RequestBodyValidator" style="outlineConnect=0;fontColor=#B3B3B3;gradientColor=#aaaaaa;gradientDirection=north;fillColor=#aaaaaa;strokeColor=#ffffff;dashed=0;verticalLabelPosition=bottom;verticalAlign=top;align=center;html=1;fontSize=12;fontStyle=0;aspect=fixed;shape=mxgraph.aws4.resourceIcon;resIcon=mxgraph.aws4.apigateway;" vertex="1" parent="1"><mxGeometry x="500" y="3250" width="50" height="50" as="geometry"/></mxCell><mxCell id="123" value="AttachmentsBucket" style="outlineConnect=0;fontColor=#B3B3B3;gradientColor=#60A337;gradientDirection=north;fillColor=#277116;strokeColor=#ffffff;dashed=0;verticalLabelPosition=bottom;verticalAlign=top;align=center;html=1;fontSize=12;fontStyle=0;aspect=fixed;shape=mxgraph.aws4.resourceIcon;resIcon=mxgraph.aws4.s3;" vertex="1" parent="1"><mxGeometry y="5500" width="50" height="50" as="geometry"/></mxCell><mxCell id="ServerlessDeploymentBucket|HelloLambdaFunction" value="S3Bucket" style="edgeStyle=orthogonalEdgeStyle;rounded=1;orthogonalLoop=1;jettySize=auto;html=1;labelBackgroundColor=none;fontColor=#EA6B66;noEdgeStyle=1;orthogonal=1;" edge="1" parent="1" source="19" target="2"><mxGeometry relative="1" as="geometry"><Array as="points"><mxPoint x="312" y="810"/><mxPoint x="488" y="1751.7857142857142"/></Array></mxGeometry></mxCell><mxCell id="IamRoleLambdaExecution|HelloLambdaFunction" value="Role" style="edgeStyle=orthogonalEdgeStyle;rounded=1;orthogonalLoop=1;jettySize=auto;html=1;labelBackgroundColor=none;fontColor=#EA6B66;noEdgeStyle=1;orthogonal=1;" edge="1" parent="1" source="19" target="18"><mxGeometry relative="1" as="geometry"><Array as="points"><mxPoint x="312" y="790"/><mxPoint x="488" y="1011.6666666666666"/></Array></mxGeometry></mxCell><mxCell id="ServerlessDeploymentBucket|SignupLambdaFunction" value="S3Bucket" style="edgeStyle=orthogonalEdgeStyle;rounded=1;orthogonalLoop=1;jettySize=auto;html=1;labelBackgroundColor=none;fontColor=#EA6B66;noEdgeStyle=1;orthogonal=1;" edge="1" parent="1" source="20" target="2"><mxGeometry relative="1" as="geometry"><Array as="points"><mxPoint x="312" y="910"/><mxPoint x="486" y="1755.357142857143"/></Array></mxGeometry></mxCell><mxCell id="IamRoleLambdaExecution|SignupLambdaFunction" value="Role" style="edgeStyle=orthogonalEdgeStyle;rounded=1;orthogonalLoop=1;jettySize=auto;html=1;labelBackgroundColor=none;fontColor=#EA6B66;noEdgeStyle=1;orthogonal=1;" edge="1" parent="1" source="20" target="18"><mxGeometry relative="1" as="geometry"><Array as="points"><mxPoint x="312" y="890"/><mxPoint x="486" y="1025"/></Array></mxGeometry></mxCell><mxCell id="ServerlessDeploymentBucket|SigninLambdaFunction" value="S3Bucket" style="edgeStyle=orthogonalEdgeStyle;rounded=1;orthogonalLoop=1;jettySize=auto;html=1;labelBackgroundColor=none;fontColor=#EA6B66;noEdgeStyle=1;orthogonal=1;" edge="1" parent="1" source="21" target="2"><mxGeometry relative="1" as="geometry"><Array as="points"><mxPoint x="312" y="1060"/><mxPoint x="484" y="1758.9285714285716"/></Array></mxGeometry></mxCell><mxCell id="IamRoleLambdaExecution|SigninLambdaFunction" value="Role" style="edgeStyle=orthogonalEdgeStyle;rounded=1;orthogonalLoop=1;jettySize=auto;html=1;labelBackgroundColor=none;fontColor=#EA6B66;noEdgeStyle=1;orthogonal=1;" edge="1" parent="1" source="21" target="18"><mxGeometry relative="1" as="geometry"><Array as="points"><mxPoint x="312" y="1040"/><mxPoint x="488" y="1038.3333333333333"/></Array></mxGeometry></mxCell><mxCell id="ServerlessDeploymentBucket|PostConfirmedLambdaFunction" value="S3Bucket" style="edgeStyle=orthogonalEdgeStyle;rounded=1;orthogonalLoop=1;jettySize=auto;html=1;labelBackgroundColor=none;fontColor=#EA6B66;noEdgeStyle=1;orthogonal=1;" edge="1" parent="1" source="22" target="2"><mxGeometry relative="1" as="geometry"><Array as="points"><mxPoint x="312" y="1210"/><mxPoint x="482" y="1762.5000000000002"/></Array></mxGeometry></mxCell><mxCell id="PostConfirmedIamRoleLambdaExecution|PostConfirmedLambdaFunction" value="Role" style="edgeStyle=orthogonalEdgeStyle;rounded=1;orthogonalLoop=1;jettySize=auto;html=1;labelBackgroundColor=none;fontColor=#EA6B66;noEdgeStyle=1;orthogonal=1;" edge="1" parent="1" source="22" target="94"><mxGeometry relative="1" as="geometry"><Array as="points"><mxPoint x="312" y="1190"/><mxPoint x="488" y="1225"/></Array></mxGeometry></mxCell><mxCell id="ServerlessDeploymentBucket|ProductsLambdaFunction" value="S3Bucket" style="edgeStyle=orthogonalEdgeStyle;rounded=1;orthogonalLoop=1;jettySize=auto;html=1;labelBackgroundColor=none;fontColor=#EA6B66;noEdgeStyle=1;orthogonal=1;" edge="1" parent="1" source="23" target="2"><mxGeometry relative="1" as="geometry"><Array as="points"><mxPoint x="312" y="1360"/><mxPoint x="480" y="1766.071428571429"/></Array></mxGeometry></mxCell><mxCell id="ProductsIamRoleLambdaExecution|ProductsLambdaFunction" value="Role" style="edgeStyle=orthogonalEdgeStyle;rounded=1;orthogonalLoop=1;jettySize=auto;html=1;labelBackgroundColor=none;fontColor=#EA6B66;noEdgeStyle=1;orthogonal=1;" edge="1" parent="1" source="23" target="95"><mxGeometry relative="1" as="geometry"><Array as="points"><mxPoint x="312" y="1340"/><mxPoint x="488" y="1375"/></Array></mxGeometry></mxCell><mxCell id="ServerlessDeploymentBucket|ProductsByIdLambdaFunction" value="S3Bucket" style="edgeStyle=orthogonalEdgeStyle;rounded=1;orthogonalLoop=1;jettySize=auto;html=1;labelBackgroundColor=none;fontColor=#EA6B66;noEdgeStyle=1;orthogonal=1;" edge="1" parent="1" source="24" target="2"><mxGeometry relative="1" as="geometry"><Array as="points"><mxPoint x="312" y="1510"/><mxPoint x="478" y="1769.6428571428576"/></Array></mxGeometry></mxCell><mxCell id="ProductsByIdIamRoleLambdaExecution|ProductsByIdLambdaFunction" value="Role" style="edgeStyle=orthogonalEdgeStyle;rounded=1;orthogonalLoop=1;jettySize=auto;html=1;labelBackgroundColor=none;fontColor=#EA6B66;noEdgeStyle=1;orthogonal=1;" edge="1" parent="1" source="24" target="96"><mxGeometry relative="1" as="geometry"><Array as="points"><mxPoint x="312" y="1490"/><mxPoint x="488" y="1525"/></Array></mxGeometry></mxCell><mxCell id="ServerlessDeploymentBucket|CreateProductLambdaFunction" value="S3Bucket" style="edgeStyle=orthogonalEdgeStyle;rounded=1;orthogonalLoop=1;jettySize=auto;html=1;labelBackgroundColor=none;fontColor=#EA6B66;noEdgeStyle=1;orthogonal=1;" edge="1" parent="1" source="25" target="2"><mxGeometry relative="1" as="geometry"><Array as="points"><mxPoint x="312" y="1660"/><mxPoint x="476" y="1773.2142857142862"/></Array></mxGeometry></mxCell><mxCell id="CreateProductIamRoleLambdaExecution|CreateProductLambdaFunction" value="Role" style="edgeStyle=orthogonalEdgeStyle;rounded=1;orthogonalLoop=1;jettySize=auto;html=1;labelBackgroundColor=none;fontColor=#EA6B66;noEdgeStyle=1;orthogonal=1;" edge="1" parent="1" source="25" target="97"><mxGeometry relative="1" as="geometry"><Array as="points"><mxPoint x="312" y="1640"/><mxPoint x="488" y="1675"/></Array></mxGeometry></mxCell><mxCell id="ServerlessDeploymentBucket|UpdateProductLambdaFunction" value="S3Bucket" style="edgeStyle=orthogonalEdgeStyle;rounded=1;orthogonalLoop=1;jettySize=auto;html=1;labelBackgroundColor=none;fontColor=#EA6B66;noEdgeStyle=1;orthogonal=1;" edge="1" parent="1" source="26" target="2"><mxGeometry relative="1" as="geometry"><Array as="points"><mxPoint x="312" y="1790"/><mxPoint x="476" y="1776.785714285715"/></Array></mxGeometry></mxCell><mxCell id="UpdateProductIamRoleLambdaExecution|UpdateProductLambdaFunction" value="Role" style="edgeStyle=orthogonalEdgeStyle;rounded=1;orthogonalLoop=1;jettySize=auto;html=1;labelBackgroundColor=none;fontColor=#EA6B66;noEdgeStyle=1;orthogonal=1;" edge="1" parent="1" source="26" target="98"><mxGeometry relative="1" as="geometry"><Array as="points"><mxPoint x="312" y="1810"/><mxPoint x="488" y="1925"/></Array></mxGeometry></mxCell><mxCell id="ServerlessDeploymentBucket|DeleteProductLambdaFunction" value="S3Bucket" style="edgeStyle=orthogonalEdgeStyle;rounded=1;orthogonalLoop=1;jettySize=auto;html=1;labelBackgroundColor=none;fontColor=#EA6B66;noEdgeStyle=1;orthogonal=1;" edge="1" parent="1" source="27" target="2"><mxGeometry relative="1" as="geometry"><Array as="points"><mxPoint x="312" y="1940"/><mxPoint x="478" y="1780.3571428571436"/></Array></mxGeometry></mxCell><mxCell id="DeleteProductIamRoleLambdaExecution|DeleteProductLambdaFunction" value="Role" style="edgeStyle=orthogonalEdgeStyle;rounded=1;orthogonalLoop=1;jettySize=auto;html=1;labelBackgroundColor=none;fontColor=#EA6B66;noEdgeStyle=1;orthogonal=1;" edge="1" parent="1" source="27" target="99"><mxGeometry relative="1" as="geometry"><Array as="points"><mxPoint x="312" y="1960"/><mxPoint x="488" y="2075"/></Array></mxGeometry></mxCell><mxCell id="ServerlessDeploymentBucket|CreateOrderLambdaFunction" value="S3Bucket" style="edgeStyle=orthogonalEdgeStyle;rounded=1;orthogonalLoop=1;jettySize=auto;html=1;labelBackgroundColor=none;fontColor=#EA6B66;noEdgeStyle=1;orthogonal=1;" edge="1" parent="1" source="28" target="2"><mxGeometry relative="1" as="geometry"><Array as="points"><mxPoint x="312" y="2090"/><mxPoint x="480" y="1783.9285714285722"/></Array></mxGeometry></mxCell><mxCell id="CreateOrderIamRoleLambdaExecution|CreateOrderLambdaFunction" value="Role" style="edgeStyle=orthogonalEdgeStyle;rounded=1;orthogonalLoop=1;jettySize=auto;html=1;labelBackgroundColor=none;fontColor=#EA6B66;noEdgeStyle=1;orthogonal=1;" edge="1" parent="1" source="28" target="100"><mxGeometry relative="1" as="geometry"><Array as="points"><mxPoint x="312" y="2110"/><mxPoint x="488" y="2225"/></Array></mxGeometry></mxCell><mxCell id="ServerlessDeploymentBucket|GetOrdersByUserIdLambdaFunction" value="S3Bucket" style="edgeStyle=orthogonalEdgeStyle;rounded=1;orthogonalLoop=1;jettySize=auto;html=1;labelBackgroundColor=none;fontColor=#EA6B66;noEdgeStyle=1;orthogonal=1;" edge="1" parent="1" source="29" target="2"><mxGeometry relative="1" as="geometry"><Array as="points"><mxPoint x="312" y="2240"/><mxPoint x="482" y="1787.500000000001"/></Array></mxGeometry></mxCell><mxCell id="GetOrdersByUserIdIamRoleLambdaExecution|GetOrdersByUserIdLambdaFunction" value="Role" style="edgeStyle=orthogonalEdgeStyle;rounded=1;orthogonalLoop=1;jettySize=auto;html=1;labelBackgroundColor=none;fontColor=#EA6B66;noEdgeStyle=1;orthogonal=1;" edge="1" parent="1" source="29" target="101"><mxGeometry relative="1" as="geometry"><Array as="points"><mxPoint x="312" y="2260"/><mxPoint x="488" y="2375"/></Array></mxGeometry></mxCell><mxCell id="ServerlessDeploymentBucket|GetOrderByIdLambdaFunction" value="S3Bucket" style="edgeStyle=orthogonalEdgeStyle;rounded=1;orthogonalLoop=1;jettySize=auto;html=1;labelBackgroundColor=none;fontColor=#EA6B66;noEdgeStyle=1;orthogonal=1;" edge="1" parent="1" source="30" target="2"><mxGeometry relative="1" as="geometry"><Array as="points"><mxPoint x="312" y="2390"/><mxPoint x="484" y="1791.0714285714296"/></Array></mxGeometry></mxCell><mxCell id="GetOrderByIdIamRoleLambdaExecution|GetOrderByIdLambdaFunction" value="Role" style="edgeStyle=orthogonalEdgeStyle;rounded=1;orthogonalLoop=1;jettySize=auto;html=1;labelBackgroundColor=none;fontColor=#EA6B66;noEdgeStyle=1;orthogonal=1;" edge="1" parent="1" source="30" target="102"><mxGeometry relative="1" as="geometry"><Array as="points"><mxPoint x="312" y="2410"/><mxPoint x="488" y="2525"/></Array></mxGeometry></mxCell><mxCell id="ServerlessDeploymentBucket|PaymentLambdaFunction" value="S3Bucket" style="edgeStyle=orthogonalEdgeStyle;rounded=1;orthogonalLoop=1;jettySize=auto;html=1;labelBackgroundColor=none;fontColor=#EA6B66;noEdgeStyle=1;orthogonal=1;" edge="1" parent="1" source="31" target="2"><mxGeometry relative="1" as="geometry"><Array as="points"><mxPoint x="312" y="2540"/><mxPoint x="486" y="1794.6428571428582"/></Array></mxGeometry></mxCell><mxCell id="PaymentIamRoleLambdaExecution|PaymentLambdaFunction" value="Role" style="edgeStyle=orthogonalEdgeStyle;rounded=1;orthogonalLoop=1;jettySize=auto;html=1;labelBackgroundColor=none;fontColor=#EA6B66;noEdgeStyle=1;orthogonal=1;" edge="1" parent="1" source="31" target="103"><mxGeometry relative="1" as="geometry"><Array as="points"><mxPoint x="312" y="2560"/><mxPoint x="488" y="2675"/></Array></mxGeometry></mxCell><mxCell id="ServerlessDeploymentBucket|UploadImageLambdaFunction" value="S3Bucket" style="edgeStyle=orthogonalEdgeStyle;rounded=1;orthogonalLoop=1;jettySize=auto;html=1;labelBackgroundColor=none;fontColor=#EA6B66;noEdgeStyle=1;orthogonal=1;" edge="1" parent="1" source="32" target="2"><mxGeometry relative="1" as="geometry"><Array as="points"><mxPoint x="312" y="2690"/><mxPoint x="488" y="1798.214285714287"/></Array></mxGeometry></mxCell><mxCell id="UploadImageIamRoleLambdaExecution|UploadImageLambdaFunction" value="Role" style="edgeStyle=orthogonalEdgeStyle;rounded=1;orthogonalLoop=1;jettySize=auto;html=1;labelBackgroundColor=none;fontColor=#EA6B66;noEdgeStyle=1;orthogonal=1;" edge="1" parent="1" source="32" target="104"><mxGeometry relative="1" as="geometry"><Array as="points"><mxPoint x="312" y="2710"/><mxPoint x="488" y="2825"/></Array></mxGeometry></mxCell><mxCell id="ApiGatewayRestApi|ApiGatewayResourceHello" value="RestApiId&#xA;ParentId" style="edgeStyle=orthogonalEdgeStyle;rounded=1;orthogonalLoop=1;jettySize=auto;html=1;labelBackgroundColor=none;fontColor=#EA6B66;noEdgeStyle=1;orthogonal=1;" edge="1" parent="1" source="48" target="47"><mxGeometry relative="1" as="geometry"><Array as="points"><mxPoint x="562" y="25"/><mxPoint x="738" y="1075.8620689655172"/></Array></mxGeometry></mxCell><mxCell id="ApiGatewayRestApi|ApiGatewayResourceSignup" value="RestApiId&#xA;ParentId" style="edgeStyle=orthogonalEdgeStyle;rounded=1;orthogonalLoop=1;jettySize=auto;html=1;labelBackgroundColor=none;fontColor=#EA6B66;noEdgeStyle=1;orthogonal=1;" edge="1" parent="1" source="49" target="47"><mxGeometry relative="1" as="geometry"><Array as="points"><mxPoint x="562" y="125"/><mxPoint x="736" y="1077.5862068965516"/></Array></mxGeometry></mxCell><mxCell id="ApiGatewayRestApi|ApiGatewayResourceSignin" value="RestApiId&#xA;ParentId" style="edgeStyle=orthogonalEdgeStyle;rounded=1;orthogonalLoop=1;jettySize=auto;html=1;labelBackgroundColor=none;fontColor=#EA6B66;noEdgeStyle=1;orthogonal=1;" edge="1" parent="1" source="50" target="47"><mxGeometry relative="1" as="geometry"><Array as="points"><mxPoint x="562" y="225"/><mxPoint x="734" y="1079.310344827586"/></Array></mxGeometry></mxCell><mxCell id="ApiGatewayRestApi|ApiGatewayResourceConfirmed" value="RestApiId&#xA;ParentId" style="edgeStyle=orthogonalEdgeStyle;rounded=1;orthogonalLoop=1;jettySize=auto;html=1;labelBackgroundColor=none;fontColor=#EA6B66;noEdgeStyle=1;orthogonal=1;" edge="1" parent="1" source="51" target="47"><mxGeometry relative="1" as="geometry"><Array as="points"><mxPoint x="562" y="325"/><mxPoint x="732" y="1081.0344827586205"/></Array></mxGeometry></mxCell><mxCell id="ApiGatewayRestApi|ApiGatewayResourceProducts" value="RestApiId&#xA;ParentId" style="edgeStyle=orthogonalEdgeStyle;rounded=1;orthogonalLoop=1;jettySize=auto;html=1;labelBackgroundColor=none;fontColor=#EA6B66;noEdgeStyle=1;orthogonal=1;" edge="1" parent="1" source="52" target="47"><mxGeometry relative="1" as="geometry"><Array as="points"><mxPoint x="562" y="425"/><mxPoint x="730" y="1082.758620689655"/></Array></mxGeometry></mxCell><mxCell id="ApiGatewayResourceProducts|ApiGatewayResourceProductsProductidVar" value="ParentId" style="edgeStyle=orthogonalEdgeStyle;rounded=1;orthogonalLoop=1;jettySize=auto;html=1;labelBackgroundColor=none;fontColor=#EA6B66;noEdgeStyle=1;orthogonal=1;" edge="1" parent="1" source="53" target="52"><mxGeometry relative="1" as="geometry"><Array as="points"><mxPoint x="312" y="240"/><mxPoint x="488" y="425"/></Array></mxGeometry></mxCell><mxCell id="ApiGatewayRestApi|ApiGatewayResourceProductsProductidVar" value="RestApiId" style="edgeStyle=orthogonalEdgeStyle;rounded=1;orthogonalLoop=1;jettySize=auto;html=1;labelBackgroundColor=none;fontColor=#EA6B66;noEdgeStyle=1;orthogonal=1;" edge="1" parent="1" source="53" target="47"><mxGeometry relative="1" as="geometry"><Array as="points"><mxPoint x="312" y="260"/><mxPoint x="400" y="500"/><mxPoint x="650" y="500"/><mxPoint x="728" y="1084.4827586206893"/></Array></mxGeometry></mxCell><mxCell id="ApiGatewayResourceProductsProductidVar|ApiGatewayResourceProductsProductidVarUpload" value="ParentId" style="edgeStyle=orthogonalEdgeStyle;rounded=1;orthogonalLoop=1;jettySize=auto;html=1;labelBackgroundColor=none;fontColor=#EA6B66;noEdgeStyle=1;orthogonal=1;" edge="1" parent="1" source="54" target="53"><mxGeometry relative="1" as="geometry"><Array as="points"><mxPoint x="62" y="277.5"/><mxPoint x="238" y="250"/></Array></mxGeometry></mxCell><mxCell id="ApiGatewayRestApi|ApiGatewayResourceProductsProductidVarUpload" value="RestApiId" style="edgeStyle=orthogonalEdgeStyle;rounded=1;orthogonalLoop=1;jettySize=auto;html=1;labelBackgroundColor=none;fontColor=#EA6B66;noEdgeStyle=1;orthogonal=1;" edge="1" parent="1" source="54" target="47"><mxGeometry relative="1" as="geometry"><Array as="points"><mxPoint x="62" y="297.5"/><mxPoint x="150" y="325"/><mxPoint x="400" y="325"/><mxPoint x="400" y="550"/><mxPoint x="650" y="550"/><mxPoint x="726" y="1086.2068965517237"/></Array></mxGeometry></mxCell><mxCell id="ApiGatewayRestApi|ApiGatewayResourceOrders" value="RestApiId&#xA;ParentId" style="edgeStyle=orthogonalEdgeStyle;rounded=1;orthogonalLoop=1;jettySize=auto;html=1;labelBackgroundColor=none;fontColor=#EA6B66;noEdgeStyle=1;orthogonal=1;" edge="1" parent="1" source="55" target="47"><mxGeometry relative="1" as="geometry"><Array as="points"><mxPoint x="312" y="400"/><mxPoint x="400" y="600"/><mxPoint x="650" y="600"/><mxPoint x="724" y="1087.9310344827582"/></Array></mxGeometry></mxCell><mxCell id="ApiGatewayResourceOrders|ApiGatewayResourceOrdersOrderidVar" value="ParentId" style="edgeStyle=orthogonalEdgeStyle;rounded=1;orthogonalLoop=1;jettySize=auto;html=1;labelBackgroundColor=none;fontColor=#EA6B66;noEdgeStyle=1;orthogonal=1;" edge="1" parent="1" source="56" target="55"><mxGeometry relative="1" as="geometry"><Array as="points"><mxPoint x="62" y="427.5"/><mxPoint x="238" y="400"/></Array></mxGeometry></mxCell><mxCell id="ApiGatewayRestApi|ApiGatewayResourceOrdersOrderidVar" value="RestApiId" style="edgeStyle=orthogonalEdgeStyle;rounded=1;orthogonalLoop=1;jettySize=auto;html=1;labelBackgroundColor=none;fontColor=#EA6B66;noEdgeStyle=1;orthogonal=1;" edge="1" parent="1" source="56" target="47"><mxGeometry relative="1" as="geometry"><Array as="points"><mxPoint x="62" y="447.5"/><mxPoint x="150" y="475"/><mxPoint x="400" y="475"/><mxPoint x="400" y="650"/><mxPoint x="650" y="650"/><mxPoint x="722" y="1089.6551724137926"/></Array></mxGeometry></mxCell><mxCell id="ApiGatewayRestApi|ApiGatewayResourcePayment" value="RestApiId&#xA;ParentId" style="edgeStyle=orthogonalEdgeStyle;rounded=1;orthogonalLoop=1;jettySize=auto;html=1;labelBackgroundColor=none;fontColor=#EA6B66;noEdgeStyle=1;orthogonal=1;" edge="1" parent="1" source="57" target="47"><mxGeometry relative="1" as="geometry"><Array as="points"><mxPoint x="312" y="550"/><mxPoint x="400" y="700"/><mxPoint x="650" y="700"/><mxPoint x="720" y="1091.379310344827"/></Array></mxGeometry></mxCell><mxCell id="ApiGatewayResourcePayment|ApiGatewayResourcePaymentOrderidVar" value="ParentId" style="edgeStyle=orthogonalEdgeStyle;rounded=1;orthogonalLoop=1;jettySize=auto;html=1;labelBackgroundColor=none;fontColor=#EA6B66;noEdgeStyle=1;orthogonal=1;" edge="1" parent="1" source="58" target="57"><mxGeometry relative="1" as="geometry"><Array as="points"><mxPoint x="62" y="577.5"/><mxPoint x="238" y="550"/></Array></mxGeometry></mxCell><mxCell id="ApiGatewayRestApi|ApiGatewayResourcePaymentOrderidVar" value="RestApiId" style="edgeStyle=orthogonalEdgeStyle;rounded=1;orthogonalLoop=1;jettySize=auto;html=1;labelBackgroundColor=none;fontColor=#EA6B66;noEdgeStyle=1;orthogonal=1;" edge="1" parent="1" source="58" target="47"><mxGeometry relative="1" as="geometry"><Array as="points"><mxPoint x="62" y="597.5"/><mxPoint x="150" y="625"/><mxPoint x="400" y="625"/><mxPoint x="400" y="750"/><mxPoint x="650" y="750"/><mxPoint x="718" y="1093.1034482758614"/></Array></mxGeometry></mxCell><mxCell id="ApiGatewayRestApi|ApiGatewayDeployment1633519405189" value="RestApiId" style="edgeStyle=orthogonalEdgeStyle;rounded=1;orthogonalLoop=1;jettySize=auto;html=1;labelBackgroundColor=none;fontColor=#EA6B66;noEdgeStyle=1;orthogonal=1;" edge="1" parent="1" source="79" target="47"><mxGeometry relative="1" as="geometry"><Array as="points"><mxPoint x="562" y="825"/><mxPoint x="716" y="1094.8275862068958"/></Array></mxGeometry></mxCell><mxCell id="ApiGatewayRestApi|HelloLambdaPermissionApiGateway" value="SourceArn" style="edgeStyle=orthogonalEdgeStyle;rounded=1;orthogonalLoop=1;jettySize=auto;html=1;labelBackgroundColor=none;fontColor=#EA6B66;noEdgeStyle=1;orthogonal=1;" edge="1" parent="1" source="80" target="47"><mxGeometry relative="1" as="geometry"><Array as="points"><mxPoint x="62" y="727.5"/><mxPoint x="150" y="675"/><mxPoint x="400" y="675"/><mxPoint x="400" y="900"/><mxPoint x="650" y="900"/><mxPoint x="714" y="1096.5517241379303"/></Array></mxGeometry></mxCell><mxCell id="HelloLambdaFunction|HelloLambdaPermissionApiGateway" value="FunctionName" style="edgeStyle=orthogonalEdgeStyle;rounded=1;orthogonalLoop=1;jettySize=auto;html=1;labelBackgroundColor=none;fontColor=#EA6B66;noEdgeStyle=1;orthogonal=1;" edge="1" parent="1" source="80" target="19"><mxGeometry relative="1" as="geometry"><Array as="points"><mxPoint x="62" y="747.5"/><mxPoint x="238" y="800"/></Array></mxGeometry></mxCell><mxCell id="ApiGatewayRestApi|SignupLambdaPermissionApiGateway" value="SourceArn" style="edgeStyle=orthogonalEdgeStyle;rounded=1;orthogonalLoop=1;jettySize=auto;html=1;labelBackgroundColor=none;fontColor=#EA6B66;noEdgeStyle=1;orthogonal=1;" edge="1" parent="1" source="81" target="47"><mxGeometry relative="1" as="geometry"><Array as="points"><mxPoint x="62" y="827.5"/><mxPoint x="150" y="725"/><mxPoint x="400" y="725"/><mxPoint x="400" y="950"/><mxPoint x="650" y="950"/><mxPoint x="712" y="1098.2758620689647"/></Array></mxGeometry></mxCell><mxCell id="SignupLambdaFunction|SignupLambdaPermissionApiGateway" value="FunctionName" style="edgeStyle=orthogonalEdgeStyle;rounded=1;orthogonalLoop=1;jettySize=auto;html=1;labelBackgroundColor=none;fontColor=#EA6B66;noEdgeStyle=1;orthogonal=1;" edge="1" parent="1" source="81" target="20"><mxGeometry relative="1" as="geometry"><Array as="points"><mxPoint x="62" y="847.5"/><mxPoint x="238" y="900"/></Array></mxGeometry></mxCell><mxCell id="ApiGatewayRestApi|SigninLambdaPermissionApiGateway" value="SourceArn" style="edgeStyle=orthogonalEdgeStyle;rounded=1;orthogonalLoop=1;jettySize=auto;html=1;labelBackgroundColor=none;fontColor=#EA6B66;noEdgeStyle=1;orthogonal=1;" edge="1" parent="1" source="82" target="47"><mxGeometry relative="1" as="geometry"><Array as="points"><mxPoint x="62" y="1002.5"/><mxPoint x="150" y="975"/><mxPoint x="400" y="975"/><mxPoint x="400" y="1100"/><mxPoint x="650" y="1100"/><mxPoint x="710" y="1099.999999999999"/></Array></mxGeometry></mxCell><mxCell id="SigninLambdaFunction|SigninLambdaPermissionApiGateway" value="FunctionName" style="edgeStyle=orthogonalEdgeStyle;rounded=1;orthogonalLoop=1;jettySize=auto;html=1;labelBackgroundColor=none;fontColor=#EA6B66;noEdgeStyle=1;orthogonal=1;" edge="1" parent="1" source="82" target="21"><mxGeometry relative="1" as="geometry"><Array as="points"><mxPoint x="62" y="1022.5"/><mxPoint x="238" y="1050"/></Array></mxGeometry></mxCell><mxCell id="ApiGatewayRestApi|PostConfirmedLambdaPermissionApiGateway" value="SourceArn" style="edgeStyle=orthogonalEdgeStyle;rounded=1;orthogonalLoop=1;jettySize=auto;html=1;labelBackgroundColor=none;fontColor=#EA6B66;noEdgeStyle=1;orthogonal=1;" edge="1" parent="1" source="83" target="47"><mxGeometry relative="1" as="geometry"><Array as="points"><mxPoint x="62" y="1152.5"/><mxPoint x="150" y="1125"/><mxPoint x="400" y="1125"/><mxPoint x="400" y="1150"/><mxPoint x="650" y="1150"/><mxPoint x="712" y="1101.7241379310335"/></Array></mxGeometry></mxCell><mxCell id="PostConfirmedLambdaFunction|PostConfirmedLambdaPermissionApiGateway" value="FunctionName" style="edgeStyle=orthogonalEdgeStyle;rounded=1;orthogonalLoop=1;jettySize=auto;html=1;labelBackgroundColor=none;fontColor=#EA6B66;noEdgeStyle=1;orthogonal=1;" edge="1" parent="1" source="83" target="22"><mxGeometry relative="1" as="geometry"><Array as="points"><mxPoint x="62" y="1172.5"/><mxPoint x="238" y="1200"/></Array></mxGeometry></mxCell><mxCell id="ApiGatewayRestApi|ProductsLambdaPermissionApiGateway" value="SourceArn" style="edgeStyle=orthogonalEdgeStyle;rounded=1;orthogonalLoop=1;jettySize=auto;html=1;labelBackgroundColor=none;fontColor=#EA6B66;noEdgeStyle=1;orthogonal=1;" edge="1" parent="1" source="84" target="47"><mxGeometry relative="1" as="geometry"><Array as="points"><mxPoint x="62" y="1302.5"/><mxPoint x="150" y="1275"/><mxPoint x="400" y="1275"/><mxPoint x="400" y="1300"/><mxPoint x="650" y="1300"/><mxPoint x="714" y="1103.448275862068"/></Array></mxGeometry></mxCell><mxCell id="ProductsLambdaFunction|ProductsLambdaPermissionApiGateway" value="FunctionName" style="edgeStyle=orthogonalEdgeStyle;rounded=1;orthogonalLoop=1;jettySize=auto;html=1;labelBackgroundColor=none;fontColor=#EA6B66;noEdgeStyle=1;orthogonal=1;" edge="1" parent="1" source="84" target="23"><mxGeometry relative="1" as="geometry"><Array as="points"><mxPoint x="62" y="1322.5"/><mxPoint x="238" y="1350"/></Array></mxGeometry></mxCell><mxCell id="ApiGatewayRestApi|ProductsByIdLambdaPermissionApiGateway" value="SourceArn" style="edgeStyle=orthogonalEdgeStyle;rounded=1;orthogonalLoop=1;jettySize=auto;html=1;labelBackgroundColor=none;fontColor=#EA6B66;noEdgeStyle=1;orthogonal=1;" edge="1" parent="1" source="85" target="47"><mxGeometry relative="1" as="geometry"><Array as="points"><mxPoint x="62" y="1440"/><mxPoint x="150" y="1425"/><mxPoint x="400" y="1425"/><mxPoint x="400" y="1450"/><mxPoint x="650" y="1450"/><mxPoint x="716" y="1105.1724137931024"/></Array></mxGeometry></mxCell><mxCell id="ProductsByIdLambdaFunction|ProductsByIdLambdaPermissionApiGateway" value="FunctionName" style="edgeStyle=orthogonalEdgeStyle;rounded=1;orthogonalLoop=1;jettySize=auto;html=1;labelBackgroundColor=none;fontColor=#EA6B66;noEdgeStyle=1;orthogonal=1;" edge="1" parent="1" source="85" target="24"><mxGeometry relative="1" as="geometry"><Array as="points"><mxPoint x="62" y="1460"/><mxPoint x="238" y="1500"/></Array></mxGeometry></mxCell><mxCell id="ApiGatewayRestApi|CreateProductLambdaPermissionApiGateway" value="SourceArn" style="edgeStyle=orthogonalEdgeStyle;rounded=1;orthogonalLoop=1;jettySize=auto;html=1;labelBackgroundColor=none;fontColor=#EA6B66;noEdgeStyle=1;orthogonal=1;" edge="1" parent="1" source="86" target="47"><mxGeometry relative="1" as="geometry"><Array as="points"><mxPoint x="62" y="1540"/><mxPoint x="150" y="1575"/><mxPoint x="400" y="1575"/><mxPoint x="400" y="1600"/><mxPoint x="650" y="1600"/><mxPoint x="718" y="1106.8965517241368"/></Array></mxGeometry></mxCell><mxCell id="CreateProductLambdaFunction|CreateProductLambdaPermissionApiGateway" value="FunctionName" style="edgeStyle=orthogonalEdgeStyle;rounded=1;orthogonalLoop=1;jettySize=auto;html=1;labelBackgroundColor=none;fontColor=#EA6B66;noEdgeStyle=1;orthogonal=1;" edge="1" parent="1" source="86" target="25"><mxGeometry relative="1" as="geometry"><Array as="points"><mxPoint x="62" y="1560"/><mxPoint x="238" y="1650"/></Array></mxGeometry></mxCell><mxCell id="ApiGatewayRestApi|UpdateProductLambdaPermissionApiGateway" value="SourceArn" style="edgeStyle=orthogonalEdgeStyle;rounded=1;orthogonalLoop=1;jettySize=auto;html=1;labelBackgroundColor=none;fontColor=#EA6B66;noEdgeStyle=1;orthogonal=1;" edge="1" parent="1" source="87" target="47"><mxGeometry relative="1" as="geometry"><Array as="points"><mxPoint x="62" y="1640"/><mxPoint x="150" y="1725"/><mxPoint x="400" y="1725"/><mxPoint x="400" y="1850"/><mxPoint x="650" y="1850"/><mxPoint x="720" y="1108.6206896551712"/></Array></mxGeometry></mxCell><mxCell id="UpdateProductLambdaFunction|UpdateProductLambdaPermissionApiGateway" value="FunctionName" style="edgeStyle=orthogonalEdgeStyle;rounded=1;orthogonalLoop=1;jettySize=auto;html=1;labelBackgroundColor=none;fontColor=#EA6B66;noEdgeStyle=1;orthogonal=1;" edge="1" parent="1" source="87" target="26"><mxGeometry relative="1" as="geometry"><Array as="points"><mxPoint x="62" y="1660"/><mxPoint x="238" y="1800"/></Array></mxGeometry></mxCell><mxCell id="ApiGatewayRestApi|DeleteProductLambdaPermissionApiGateway" value="SourceArn" style="edgeStyle=orthogonalEdgeStyle;rounded=1;orthogonalLoop=1;jettySize=auto;html=1;labelBackgroundColor=none;fontColor=#EA6B66;noEdgeStyle=1;orthogonal=1;" edge="1" parent="1" source="88" target="47"><mxGeometry relative="1" as="geometry"><Array as="points"><mxPoint x="62" y="1740"/><mxPoint x="150" y="1875"/><mxPoint x="400" y="1875"/><mxPoint x="400" y="2000"/><mxPoint x="650" y="2000"/><mxPoint x="722" y="1110.3448275862056"/></Array></mxGeometry></mxCell><mxCell id="DeleteProductLambdaFunction|DeleteProductLambdaPermissionApiGateway" value="FunctionName" style="edgeStyle=orthogonalEdgeStyle;rounded=1;orthogonalLoop=1;jettySize=auto;html=1;labelBackgroundColor=none;fontColor=#EA6B66;noEdgeStyle=1;orthogonal=1;" edge="1" parent="1" source="88" target="27"><mxGeometry relative="1" as="geometry"><Array as="points"><mxPoint x="62" y="1760"/><mxPoint x="238" y="1950"/></Array></mxGeometry></mxCell><mxCell id="ApiGatewayRestApi|CreateOrderLambdaPermissionApiGateway" value="SourceArn" style="edgeStyle=orthogonalEdgeStyle;rounded=1;orthogonalLoop=1;jettySize=auto;html=1;labelBackgroundColor=none;fontColor=#EA6B66;noEdgeStyle=1;orthogonal=1;" edge="1" parent="1" source="89" target="47"><mxGeometry relative="1" as="geometry"><Array as="points"><mxPoint x="62" y="1840"/><mxPoint x="150" y="2025"/><mxPoint x="400" y="2025"/><mxPoint x="400" y="2150"/><mxPoint x="650" y="2150"/><mxPoint x="724" y="1112.06896551724"/></Array></mxGeometry></mxCell><mxCell id="CreateOrderLambdaFunction|CreateOrderLambdaPermissionApiGateway" value="FunctionName" style="edgeStyle=orthogonalEdgeStyle;rounded=1;orthogonalLoop=1;jettySize=auto;html=1;labelBackgroundColor=none;fontColor=#EA6B66;noEdgeStyle=1;orthogonal=1;" edge="1" parent="1" source="89" target="28"><mxGeometry relative="1" as="geometry"><Array as="points"><mxPoint x="62" y="1860"/><mxPoint x="238" y="2100"/></Array></mxGeometry></mxCell><mxCell id="ApiGatewayRestApi|GetOrdersByUserIdLambdaPermissionApiGateway" value="SourceArn" style="edgeStyle=orthogonalEdgeStyle;rounded=1;orthogonalLoop=1;jettySize=auto;html=1;labelBackgroundColor=none;fontColor=#EA6B66;noEdgeStyle=1;orthogonal=1;" edge="1" parent="1" source="90" target="47"><mxGeometry relative="1" as="geometry"><Array as="points"><mxPoint x="62" y="1940"/><mxPoint x="150" y="2175"/><mxPoint x="400" y="2175"/><mxPoint x="400" y="2300"/><mxPoint x="650" y="2300"/><mxPoint x="726" y="1113.7931034482745"/></Array></mxGeometry></mxCell><mxCell id="GetOrdersByUserIdLambdaFunction|GetOrdersByUserIdLambdaPermissionApiGateway" value="FunctionName" style="edgeStyle=orthogonalEdgeStyle;rounded=1;orthogonalLoop=1;jettySize=auto;html=1;labelBackgroundColor=none;fontColor=#EA6B66;noEdgeStyle=1;orthogonal=1;" edge="1" parent="1" source="90" target="29"><mxGeometry relative="1" as="geometry"><Array as="points"><mxPoint x="62" y="1960"/><mxPoint x="238" y="2250"/></Array></mxGeometry></mxCell><mxCell id="ApiGatewayRestApi|GetOrderByIdLambdaPermissionApiGateway" value="SourceArn" style="edgeStyle=orthogonalEdgeStyle;rounded=1;orthogonalLoop=1;jettySize=auto;html=1;labelBackgroundColor=none;fontColor=#EA6B66;noEdgeStyle=1;orthogonal=1;" edge="1" parent="1" source="91" target="47"><mxGeometry relative="1" as="geometry"><Array as="points"><mxPoint x="62" y="2040"/><mxPoint x="150" y="2325"/><mxPoint x="400" y="2325"/><mxPoint x="400" y="2450"/><mxPoint x="650" y="2450"/><mxPoint x="728" y="1115.5172413793089"/></Array></mxGeometry></mxCell><mxCell id="GetOrderByIdLambdaFunction|GetOrderByIdLambdaPermissionApiGateway" value="FunctionName" style="edgeStyle=orthogonalEdgeStyle;rounded=1;orthogonalLoop=1;jettySize=auto;html=1;labelBackgroundColor=none;fontColor=#EA6B66;noEdgeStyle=1;orthogonal=1;" edge="1" parent="1" source="91" target="30"><mxGeometry relative="1" as="geometry"><Array as="points"><mxPoint x="62" y="2060"/><mxPoint x="238" y="2400"/></Array></mxGeometry></mxCell><mxCell id="ApiGatewayRestApi|PaymentLambdaPermissionApiGateway" value="SourceArn" style="edgeStyle=orthogonalEdgeStyle;rounded=1;orthogonalLoop=1;jettySize=auto;html=1;labelBackgroundColor=none;fontColor=#EA6B66;noEdgeStyle=1;orthogonal=1;" edge="1" parent="1" source="92" target="47"><mxGeometry relative="1" as="geometry"><Array as="points"><mxPoint x="62" y="2140"/><mxPoint x="150" y="2475"/><mxPoint x="400" y="2475"/><mxPoint x="400" y="2600"/><mxPoint x="650" y="2600"/><mxPoint x="730" y="1117.2413793103433"/></Array></mxGeometry></mxCell><mxCell id="PaymentLambdaFunction|PaymentLambdaPermissionApiGateway" value="FunctionName" style="edgeStyle=orthogonalEdgeStyle;rounded=1;orthogonalLoop=1;jettySize=auto;html=1;labelBackgroundColor=none;fontColor=#EA6B66;noEdgeStyle=1;orthogonal=1;" edge="1" parent="1" source="92" target="31"><mxGeometry relative="1" as="geometry"><Array as="points"><mxPoint x="62" y="2160"/><mxPoint x="238" y="2550"/></Array></mxGeometry></mxCell><mxCell id="ApiGatewayRestApi|UploadImageLambdaPermissionApiGateway" value="SourceArn" style="edgeStyle=orthogonalEdgeStyle;rounded=1;orthogonalLoop=1;jettySize=auto;html=1;labelBackgroundColor=none;fontColor=#EA6B66;noEdgeStyle=1;orthogonal=1;" edge="1" parent="1" source="93" target="47"><mxGeometry relative="1" as="geometry"><Array as="points"><mxPoint x="62" y="2240"/><mxPoint x="150" y="2625"/><mxPoint x="400" y="2625"/><mxPoint x="400" y="2750"/><mxPoint x="650" y="2750"/><mxPoint x="732" y="1118.9655172413777"/></Array></mxGeometry></mxCell><mxCell id="UploadImageLambdaFunction|UploadImageLambdaPermissionApiGateway" value="FunctionName" style="edgeStyle=orthogonalEdgeStyle;rounded=1;orthogonalLoop=1;jettySize=auto;html=1;labelBackgroundColor=none;fontColor=#EA6B66;noEdgeStyle=1;orthogonal=1;" edge="1" parent="1" source="93" target="32"><mxGeometry relative="1" as="geometry"><Array as="points"><mxPoint x="62" y="2260"/><mxPoint x="238" y="2700"/></Array></mxGeometry></mxCell><mxCell id="cognitoUserPool|cognitoUserPoolClient" value="UserPoolId" style="edgeStyle=orthogonalEdgeStyle;rounded=1;orthogonalLoop=1;jettySize=auto;html=1;labelBackgroundColor=none;fontColor=#EA6B66;noEdgeStyle=1;orthogonal=1;" edge="1" parent="1" source="115" target="114"><mxGeometry relative="1" as="geometry"><Array as="points"><mxPoint x="62" y="2450"/><mxPoint x="236" y="2895"/></Array></mxGeometry></mxCell><mxCell id="cognitoUserPool|cognitoAdminGroup" value="UserPoolId" style="edgeStyle=orthogonalEdgeStyle;rounded=1;orthogonalLoop=1;jettySize=auto;html=1;labelBackgroundColor=none;fontColor=#EA6B66;noEdgeStyle=1;orthogonal=1;" edge="1" parent="1" source="116" target="114"><mxGeometry relative="1" as="geometry"><Array as="points"><mxPoint x="62" y="2360"/><mxPoint x="238" y="2885"/></Array></mxGeometry></mxCell><mxCell id="cognitoAdminIAMRole|cognitoAdminGroup" value="RoleArn" style="edgeStyle=orthogonalEdgeStyle;rounded=1;orthogonalLoop=1;jettySize=auto;html=1;labelBackgroundColor=none;fontColor=#EA6B66;noEdgeStyle=1;orthogonal=1;" edge="1" parent="1" source="116" target="117"><mxGeometry relative="1" as="geometry"><Array as="points"><mxPoint x="62" y="2340"/><mxPoint x="238" y="2800"/></Array></mxGeometry></mxCell><mxCell id="productsTable|cognitoAdminIAMRole" value="PolicyDocument" style="edgeStyle=orthogonalEdgeStyle;rounded=1;orthogonalLoop=1;jettySize=auto;html=1;labelBackgroundColor=none;fontColor=#EA6B66;noEdgeStyle=1;orthogonal=1;" edge="1" parent="1" source="117" target="112"><mxGeometry relative="1" as="geometry"><Array as="points"><mxPoint x="312" y="2790"/><mxPoint x="488" y="2915"/></Array></mxGeometry></mxCell><mxCell id="ordersTable|cognitoAdminIAMRole" value="PolicyDocument" style="edgeStyle=orthogonalEdgeStyle;rounded=1;orthogonalLoop=1;jettySize=auto;html=1;labelBackgroundColor=none;fontColor=#EA6B66;noEdgeStyle=1;orthogonal=1;" edge="1" parent="1" source="117" target="113"><mxGeometry relative="1" as="geometry"><Array as="points"><mxPoint x="312" y="2810"/><mxPoint x="488" y="3015"/></Array></mxGeometry></mxCell><mxCell id="cognitoUserPool|cognitoCustomerGroup" value="UserPoolId" style="edgeStyle=orthogonalEdgeStyle;rounded=1;orthogonalLoop=1;jettySize=auto;html=1;labelBackgroundColor=none;fontColor=#EA6B66;noEdgeStyle=1;orthogonal=1;" edge="1" parent="1" source="118" target="114"><mxGeometry relative="1" as="geometry"><Array as="points"><mxPoint x="62" y="2540"/><mxPoint x="236" y="2905"/></Array></mxGeometry></mxCell><mxCell id="cognitoCustomerIAMRole|cognitoCustomerGroup" value="RoleArn" style="edgeStyle=orthogonalEdgeStyle;rounded=1;orthogonalLoop=1;jettySize=auto;html=1;labelBackgroundColor=none;fontColor=#EA6B66;noEdgeStyle=1;orthogonal=1;" edge="1" parent="1" source="118" target="119"><mxGeometry relative="1" as="geometry"><Array as="points"><mxPoint x="62" y="2560"/><mxPoint x="238" y="3000"/></Array></mxGeometry></mxCell><mxCell id="ordersTable|cognitoCustomerIAMRole" value="PolicyDocument" style="edgeStyle=orthogonalEdgeStyle;rounded=1;orthogonalLoop=1;jettySize=auto;html=1;labelBackgroundColor=none;fontColor=#EA6B66;noEdgeStyle=1;orthogonal=1;" edge="1" parent="1" source="119" target="113"><mxGeometry relative="1" as="geometry"><Array as="points"><mxPoint x="312" y="3010"/><mxPoint x="488" y="3035"/></Array></mxGeometry></mxCell><mxCell id="productsTable|cognitoCustomerIAMRole" value="PolicyDocument" style="edgeStyle=orthogonalEdgeStyle;rounded=1;orthogonalLoop=1;jettySize=auto;html=1;labelBackgroundColor=none;fontColor=#EA6B66;noEdgeStyle=1;orthogonal=1;" edge="1" parent="1" source="119" target="112"><mxGeometry relative="1" as="geometry"><Array as="points"><mxPoint x="312" y="2990"/><mxPoint x="488" y="2935"/></Array></mxGeometry></mxCell><mxCell id="ApiGatewayRestApi|GatewayResourceDefault4XX" value="RestApiId" style="edgeStyle=orthogonalEdgeStyle;rounded=1;orthogonalLoop=1;jettySize=auto;html=1;labelBackgroundColor=none;fontColor=#EA6B66;noEdgeStyle=1;orthogonal=1;" edge="1" parent="1" source="120" target="47"><mxGeometry relative="1" as="geometry"><Array as="points"><mxPoint x="562" y="3125"/><mxPoint x="734" y="1120.6896551724121"/></Array></mxGeometry></mxCell><mxCell id="ApiGatewayRestApi|ApiGatewayAuthorizer" value="RestApiId" style="edgeStyle=orthogonalEdgeStyle;rounded=1;orthogonalLoop=1;jettySize=auto;html=1;labelBackgroundColor=none;fontColor=#EA6B66;noEdgeStyle=1;orthogonal=1;" edge="1" parent="1" source="121" target="47"><mxGeometry relative="1" as="geometry"><Array as="points"><mxPoint x="62" y="3009.21875"/><mxPoint x="150" y="3200"/><mxPoint x="400" y="3200"/><mxPoint x="400" y="3200"/><mxPoint x="650" y="3200"/><mxPoint x="736" y="1122.4137931034466"/></Array></mxGeometry></mxCell><mxCell id="cognitoUserPool|ApiGatewayAuthorizer" value="ProviderARNs" style="edgeStyle=orthogonalEdgeStyle;rounded=1;orthogonalLoop=1;jettySize=auto;html=1;labelBackgroundColor=none;fontColor=#EA6B66;noEdgeStyle=1;orthogonal=1;" edge="1" parent="1" source="121" target="114"><mxGeometry relative="1" as="geometry"><Array as="points"><mxPoint x="62" y="2989.21875"/><mxPoint x="238" y="2915"/></Array></mxGeometry></mxCell><mxCell id="ApiGatewayRestApi|RequestBodyValidator" value="RestApiId" style="edgeStyle=orthogonalEdgeStyle;rounded=1;orthogonalLoop=1;jettySize=auto;html=1;labelBackgroundColor=none;fontColor=#EA6B66;noEdgeStyle=1;orthogonal=1;" edge="1" parent="1" source="122" target="47"><mxGeometry relative="1" as="geometry"><Array as="points"><mxPoint x="562" y="3275"/><mxPoint x="738" y="1124.137931034481"/></Array></mxGeometry></mxCell></root></mxGraphModel>
            </diagram>
          </mxfile>